<svg width="55" height="26" viewBox="0 0 55 26" fill="none" xmlns="http://www.w3.org/2000/svg">
<g clip-path="url(#clip0_715_373)">
<path d="M11.3361 7.95908C11.8653 7.78269 12.4298 7.68861 13.0154 7.68861C15.579 7.68861 17.7193 9.50902 18.2085 11.9292L21.8423 11.1883C21.0097 7.0771 17.3736 3.98193 13.0154 3.98193C12.0158 3.98193 11.0586 4.14422 10.1602 4.44527L11.3361 7.95908Z" fill="#E7E7E7"/>
<path d="M7.04873 19.7329L9.50652 16.9552C8.41051 15.9839 7.71904 14.5657 7.71904 12.9851C7.71904 11.407 8.41051 9.98876 9.50652 9.01975L7.04873 6.23975C5.18599 7.89082 4.01001 10.3016 4.01001 12.9851C4.01001 15.6711 5.18599 18.0818 7.04873 19.7329" fill="#A2A2A2"/>
<path d="M18.2085 14.0481C17.717 16.4659 15.5791 18.284 13.0178 18.284C12.4298 18.284 11.863 18.1899 11.3361 18.0111L10.1602 21.5297C11.0586 21.8284 12.0182 21.9906 13.0178 21.9906C17.3712 21.9906 21.005 18.9002 21.8423 14.7937L18.2085 14.0481Z" fill="#4F4F4F"/>
<path d="M25.0199 17.0705C24.9 16.8776 24.74 16.5695 24.6413 16.3413C24.065 15.0054 24.0392 13.6225 24.5237 12.296C25.0575 10.8401 26.0783 9.72766 27.3977 9.15849C29.0559 8.44585 30.888 8.58461 32.478 9.52775C33.4869 10.1063 34.2019 11.0001 34.7452 12.2654C34.8134 12.4277 34.8746 12.5994 34.9357 12.7476L25.0199 17.0705ZM28.3315 11.3058C27.1531 11.8115 26.5463 12.9169 26.6733 14.2105L31.6595 12.0631C30.801 11.0565 29.6862 10.7225 28.3315 11.3058V11.3058ZM32.2804 15.9768C32.278 15.9768 32.278 15.9791 32.278 15.9791L32.1746 15.9086C31.8759 16.3907 31.4125 16.7835 30.8269 17.0375C29.7121 17.522 28.6796 17.3974 27.9363 16.7459L27.8681 16.8494C27.8681 16.8494 27.8681 16.847 27.8658 16.847L26.6004 18.7403C26.9156 18.9591 27.2519 19.1425 27.6047 19.2907C29.0018 19.8716 30.4318 19.8434 31.8406 19.2319C32.859 18.7897 33.6586 18.1171 34.2043 17.2633L32.2804 15.9768ZM38.4002 6.37378V16.8964L40.0371 17.5597L39.1081 19.7282L37.3018 18.9755C36.8973 18.7991 36.6197 18.531 36.4128 18.2276C36.2129 17.9195 36.0647 17.4938 36.0647 16.9246V6.37378H38.4002ZM42.6384 14.2175C42.6384 13.3214 43.0359 12.5171 43.6615 11.9714L41.9822 10.0993C40.8438 11.1059 40.1265 12.5759 40.1265 14.2128C40.1241 15.8521 40.8415 17.3245 41.9775 18.3311L43.6544 16.4589C43.0312 15.9109 42.6384 15.1113 42.6384 14.2175V14.2175ZM45.6207 17.2022C45.2914 17.2022 44.9715 17.1457 44.6752 17.0469L43.8732 19.4295C44.4212 19.6129 45.0068 19.714 45.6183 19.714C48.276 19.7164 50.4939 17.8301 51.009 15.3253L48.5441 14.822C48.2642 16.1838 47.0624 17.2045 45.6207 17.2022V17.2022ZM45.6277 8.72103C45.0186 8.72103 44.4329 8.81981 43.8849 9.00091L44.6799 11.3858C44.9786 11.287 45.2961 11.2329 45.6254 11.2329C47.0695 11.2353 48.2737 12.2607 48.5465 13.6248L51.0113 13.1262C50.5057 10.6167 48.2878 8.72338 45.6277 8.72103V8.72103Z" fill="white"/>
</g>
<defs>
<clipPath id="clip0_715_373">
<rect width="55" height="25.982" fill="white"/>
</clipPath>
</defs>
</svg>
