<svg width="85" height="37" viewBox="0 0 85 37" fill="none" xmlns="http://www.w3.org/2000/svg">
<g opacity="0.65">
<path d="M17.1546 12.4964C17.5712 12.2163 18.1079 10.9404 17.4948 10.4093C17.3006 10.2411 16.9759 10.1923 16.5228 10.2671C16.1026 10.3363 15.8609 10.4757 15.6967 10.694C15.4329 11.0449 15.1908 12.1034 15.5995 12.4966C15.9977 12.8793 16.8895 12.6745 17.1546 12.4964V12.4964ZM11.2258 10.4093C10.9273 12.2999 10.591 14.1537 10.2538 16.0066C8.08895 16.0289 5.87858 16.1108 3.79049 15.9591C4.18486 14.1463 4.46771 12.2246 4.85963 10.4093H2.52699C1.69202 15.0334 0.932338 19.7313 0 24.2604H2.38132C2.75475 21.9373 3.10421 19.5902 3.59614 17.3822C5.62649 17.3334 8.05989 17.2483 10.011 17.4298C9.60869 19.7252 9.12261 21.9384 8.74749 24.2604H11.1288C11.8942 19.5679 12.7001 14.9157 13.656 10.4093H11.2258V10.4093ZM44.9034 14.3939C43.0506 13.6634 41.5939 14.8978 40.9185 16.0541C41.0718 15.5397 41.1348 14.9372 41.2589 14.3939H39.4122C38.9606 17.8114 38.2953 21.0198 37.6628 24.2604H39.7526C40.0455 22.3369 40.1719 19.744 40.8216 17.904C41.3408 16.4337 42.6998 15.1811 44.6607 15.8644C44.6879 15.322 44.847 14.9079 44.9034 14.3939V14.3939ZM46.0695 21.9362C45.8769 21.4503 45.8272 20.6483 45.8754 20.0385C45.9833 18.668 46.495 16.9993 47.2847 16.2438C48.3744 15.2011 50.5257 15.3737 52.2417 15.9592C52.2947 15.3947 52.411 14.8912 52.4847 14.3465C49.6706 13.8979 47.0002 14.1771 45.5842 15.6273C44.1979 17.047 43.2895 20.31 43.9316 22.3631C44.6834 24.7656 48.0546 24.8962 50.7839 23.976C50.9046 23.493 50.9686 22.9547 51.0754 22.4581C49.5838 23.2142 46.7324 23.6072 46.0695 21.9362V21.9362ZM69.542 14.4412C67.695 13.5398 66.1573 15.0523 65.5571 15.9591C65.7281 15.4938 65.7379 14.8707 65.8971 14.3937H64.0506C63.5526 17.7815 62.9526 21.0696 62.2527 24.2602H64.391C64.4044 22.9525 64.6676 21.9851 64.8767 20.7029C65.3235 17.9644 65.9798 14.9615 69.2508 15.8642C69.3589 15.4012 69.404 14.8759 69.542 14.4412ZM15.0163 14.3939C14.9597 14.4018 14.9635 14.4688 14.9676 14.5361C14.5072 17.8972 13.8839 21.0998 13.2182 24.2602H15.3078C15.8099 20.8764 16.3851 17.5642 17.1059 14.3937L15.0163 14.3939V14.3939ZM33.3859 14.2042C31.8759 14.3178 30.5996 14.7418 29.6926 15.6747C28.58 16.8186 27.6792 19.348 27.9432 21.6516C28.3198 24.9378 32.5116 24.8197 35.8644 24.0233C35.9215 23.4464 36.0646 22.9534 36.1559 22.4104C34.7748 22.9149 32.3767 23.619 30.9559 22.7427C29.8833 22.0805 29.8771 20.4047 30.2269 18.9478C32.4803 18.8778 34.8224 18.8911 37.079 18.9478C37.222 17.9153 37.6317 16.7895 37.2733 15.7697C36.8009 14.4233 35.1083 14.0745 33.3859 14.2042ZM35.3783 17.8092H30.4698C30.6253 16.7078 31.6404 15.4971 33.24 15.4374C34.7454 15.3813 35.8232 15.9769 35.3783 17.8092V17.8092ZM25.4647 14.3939C23.696 13.7454 21.5406 14.5195 20.606 15.2558C20.6094 15.2883 20.5837 15.2927 20.5562 15.2951C20.572 15.282 20.5894 15.2689 20.606 15.2558C20.6058 15.2531 20.6055 15.2504 20.605 15.2477C20.6207 14.9311 20.7349 14.7105 20.7507 14.3939H18.9526C18.2033 19.2598 17.3148 23.9896 16.3772 28.6717H18.4668C18.7692 26.8483 18.9689 24.9245 19.3902 23.2168C19.8674 25.0129 22.9835 24.6698 24.2985 23.9758C27.0114 22.5436 29.104 15.7281 25.4647 14.3939V14.3939ZM23.8125 22.4104C22.6944 23.5662 19.9459 23.5489 19.7302 21.6039C19.6365 20.7577 19.9593 19.8705 20.1193 18.9951C20.2807 18.109 20.3971 17.2588 20.5564 16.481C21.6576 15.1685 24.8935 15.01 25.2218 17.1925C25.5066 19.0874 24.7382 21.4532 23.8125 22.4104V22.4104ZM77.3173 10.1247C77.1382 11.6575 76.8988 13.1315 76.5886 14.5361C71.4627 12.9523 68.3192 16.6335 68.3758 21.1771C68.387 22.0559 68.5419 22.9272 69.1046 23.5489C70.0752 24.6197 72.8532 24.8763 74.2561 23.9756C74.5274 23.8014 74.805 23.4842 74.9848 23.2643C75.1201 23.0987 75.3347 22.665 75.3737 22.7898C75.2998 23.2711 75.1896 23.7172 75.1796 24.2602H77.0748C77.4403 19.1458 78.5695 14.7775 79.4075 10.1245H77.3175V10.1247H77.3173ZM72.6522 23.1693C71.2455 23.1987 70.546 22.3489 70.5137 20.9399C70.4577 18.4722 71.5666 15.7307 73.8185 15.4848C74.8669 15.3704 75.626 15.6084 76.3942 15.8644C75.6889 18.6363 75.9434 23.1004 72.6522 23.1693V23.1693ZM54.6227 14.3939C54.5198 14.9575 54.3619 15.4675 54.2339 16.0066C55.4671 15.7047 59.3068 14.7794 59.6768 16.386C59.7997 16.9198 59.5878 17.4868 59.4338 17.904C55.9618 17.583 53.1318 18.146 52.3872 20.5603C51.8887 22.1774 52.443 23.7688 53.505 24.213C55.5503 25.0684 58.038 24.0885 58.8992 22.7427C58.8098 23.2085 58.7251 23.6794 58.7537 24.2604H60.5516C60.5709 22.5795 60.8214 21.2189 61.0862 19.7064C61.3119 18.4184 61.7366 17.1433 61.6694 16.0066C61.5147 13.4031 57.0961 14.3241 54.6227 14.3939V14.3939ZM58.0244 22.3629C56.9476 23.3919 53.9247 23.6842 54.2339 21.2245C54.4906 19.1815 56.7696 18.7474 59.2391 19.0423C59.0556 20.1599 58.8451 21.5788 58.0244 22.3629V22.3629Z" fill="white"/>
</g>
</svg>
