<svg width="33" height="33" viewBox="0 0 33 33" fill="none" xmlns="http://www.w3.org/2000/svg">
<g clip-path="url(#clip0_715_331)">
<path d="M0.640137 0H33.0001V32.9288H0.640137V0Z" fill="#9E9E9E"/>
<path d="M26.9945 19.197C26.9945 19.8511 26.2275 20.6552 25.6036 20.6552H25.0356C25.0363 16.6519 25.0363 12.1637 25.0356 11.3671C25.0354 11.3435 25.0397 11.3201 25.0484 11.2982C25.0571 11.2763 25.0699 11.2564 25.0861 11.2396C25.1024 11.2227 25.1217 11.2093 25.143 11.2001C25.1644 11.1909 25.1873 11.1861 25.2105 11.1859H26.8188C26.9154 11.1859 26.9946 11.2683 26.9946 11.3685V19.197H26.9945ZM24.3736 22.06C24.3736 22.4741 24.1745 23.1678 22.8407 23.1678C20.256 23.1678 18.6693 21.1071 18.6693 19.6293C18.6693 19.6293 18.6664 14.8506 18.6664 11.3686C18.6661 11.345 18.6705 11.3215 18.6791 11.2996C18.6878 11.2777 18.7007 11.2577 18.7169 11.2409C18.7332 11.224 18.7526 11.2107 18.774 11.2015C18.7954 11.1923 18.8184 11.1875 18.8416 11.1874H20.4519C20.5485 11.1874 20.6279 11.2693 20.6279 11.3701V19.0482C20.6279 20.3168 21.6146 21.3458 22.831 21.3458H24.3745L24.3736 22.06ZM26.9409 10.4973H25.0882C24.6942 10.4973 24.3734 10.8321 24.3734 11.2428V20.656H22.8298C21.9782 20.656 21.288 19.936 21.288 19.048V11.2428C21.288 10.8311 20.9676 10.4969 20.5729 10.4969H18.7194C18.3246 10.4969 18.0043 10.8311 18.0037 11.2428C18.0028 14.6462 18.0066 19.6294 18.0066 19.6294C18.0069 22.2488 20.822 23.8572 22.8402 23.8572C24.194 23.8572 25.0348 23.1671 25.0348 22.0553V21.3456H25.6034C26.6007 21.3456 27.6556 20.2414 27.6556 19.197V11.2428C27.6566 10.8311 27.3363 10.4969 26.941 10.4969V10.4973H26.9409ZM15.991 20.4887C15.9912 20.5123 15.9869 20.5357 15.9782 20.5575C15.9695 20.5794 15.9566 20.5993 15.9404 20.6161C15.9241 20.6329 15.9047 20.6463 15.8834 20.6555C15.862 20.6646 15.8391 20.6694 15.8159 20.6695H14.2056C14.1076 20.6695 14.0291 20.5869 14.0296 20.4873V12.8091C14.0296 11.5406 13.0426 10.5116 11.8265 10.5116H10.2829V9.79713C10.2829 9.38394 10.482 8.6894 11.8158 8.6894C14.4006 8.6894 15.9878 10.7499 15.9878 12.2279C15.9878 12.2279 15.9906 17.0297 15.9906 20.4886H15.991V20.4887ZM7.83689 20.6711C7.73891 20.6682 7.66056 20.5878 7.6617 20.4881V12.6611C7.6617 12.0068 8.42879 11.2017 9.05236 11.2017H9.62087C9.62 16.9346 9.62 19.8682 9.62087 20.4878C9.62131 20.5357 9.6031 20.5818 9.57021 20.616C9.53733 20.6503 9.49246 20.6699 9.44541 20.6705H7.83715L7.83689 20.6711ZM16.6487 12.228C16.649 9.60838 13.8339 8 11.8159 8C10.4618 8 9.62087 8.69002 9.62087 9.80184V10.5116H9.05262C8.05493 10.5116 7 11.6158 7 12.6603V20.6144C7 21.0261 7.32029 21.3603 7.71483 21.3603H9.56721C9.57873 21.3603 9.58859 21.3571 9.6001 21.3571C9.97868 21.3385 10.282 21.0141 10.282 20.6144V11.2011H11.8258C12.6771 11.2011 13.3677 11.9212 13.3677 12.8092V20.6145C13.3677 21.0262 13.6881 21.3603 14.0825 21.3603H15.9364C16.3311 21.3603 16.6512 21.0271 16.6512 20.6145C16.6526 17.1476 16.6489 12.2278 16.6489 12.2278L16.6487 12.228Z" fill="white"/>
</g>
<defs>
<clipPath id="clip0_715_331">
<rect x="0.640137" width="32.36" height="32.9288" rx="4" fill="white"/>
</clipPath>
</defs>
</svg>
